<svg width="14" height="14" viewBox="0 0 14 14" fill="none" xmlns="http://www.w3.org/2000/svg">
<path d="M13 4.7501C13.1837 4.75013 13.361 4.81757 13.4983 4.93964C13.6356 5.06171 13.7233 5.22991 13.7448 5.41235L13.75 5.5001V9.2501C13.75 10.0198 13.4542 10.76 12.9237 11.3177C12.3932 11.8754 11.6687 12.2079 10.9 12.2464L10.75 12.2501H4.08025L4.06525 12.5614L4.03975 12.9506C4.0195 13.2101 3.77575 13.3684 3.5665 13.2581L3.337 13.1351L3.067 12.9829L2.9185 12.8951L2.596 12.6979L2.42425 12.5876L2.077 12.3551L1.9195 12.2449L1.63675 12.0401L1.4005 11.8601L1.30075 11.7821C1.12375 11.6411 1.132 11.3576 1.318 11.2106L1.528 11.0479L1.783 10.8589L2.083 10.6474L2.425 10.4186L2.7715 10.2004L3.0835 10.0136L3.35725 9.85985L3.5875 9.7361C3.79375 9.62885 4.01575 9.7631 4.036 10.0061L4.05475 10.2664L4.07275 10.5776L4.08025 10.7501H10.75C11.1284 10.7502 11.4929 10.6073 11.7704 10.35C12.0479 10.0927 12.2179 9.73997 12.2463 9.3626L12.25 9.2501V5.5001C12.25 5.30119 12.329 5.11042 12.4697 4.96977C12.6103 4.82912 12.8011 4.7501 13 4.7501ZM10.4335 0.741353L10.663 0.865103L10.933 1.01735L11.0815 1.1051L11.404 1.30235L11.5758 1.4126L11.923 1.6451L12.0805 1.75535L12.3632 1.9601L12.5995 2.1401L12.6993 2.2181C12.8763 2.3591 12.868 2.6426 12.682 2.7896L12.472 2.95235L12.217 3.14135L11.917 3.35285L11.575 3.5816L11.2285 3.79985L10.9165 3.9866L10.6427 4.14035L10.4125 4.2641C10.2062 4.37135 9.9835 4.2371 9.964 3.9941L9.94525 3.73385L9.92725 3.4226L9.91975 3.2501H3.25C2.85218 3.2501 2.47064 3.40814 2.18934 3.68944C1.90804 3.97075 1.75 4.35228 1.75 4.7501V8.5001C1.75 8.69901 1.67098 8.88978 1.53033 9.03043C1.38968 9.17108 1.19891 9.2501 1 9.2501C0.801088 9.2501 0.610322 9.17108 0.46967 9.03043C0.329018 8.88978 0.25 8.69901 0.25 8.5001V4.7501C0.25 3.95445 0.56607 3.19139 1.12868 2.62878C1.69129 2.06617 2.45435 1.7501 3.25 1.7501H9.91975L9.93475 1.43885L9.95125 1.16885L9.96025 1.0496C9.9805 0.790103 10.2242 0.631103 10.4335 0.741353Z" fill="#5D24E1"/>
</svg>
